REM COMMENT "Generated by IcecastMetadataRecorder https://github.com/eshaz/icecast-metadata-js"
REM BR "16"
REM METAINT "64"
REM DATE "2020-07-29T21:16:11.222Z"
TITLE "isics-all"
FILE "isics-all.mp3" WAVE
  TRACK 1 AUDIO
    TITLE "2020-07-29T21:34:04.166Z TO:24605 Dallas County Law 1 FROM:2559984"
    INDEX 01 17:52:71
  TRACK 2 AUDIO
    TITLE "2020-07-29T21:34:06.254Z TO:1101 Polk County - Westcom Law Enforcement 1 FROM:8633"
    INDEX 01 17:55:02
  TRACK 3 AUDIO
    TITLE "2020-07-29T21:34:08.342Z TO:1101 Polk County - Westcom Law Enforcement 1 FROM:1004"
    INDEX 01 17:57:09
  TRACK 4 AUDIO
    TITLE "2020-07-29T21:34:10.502Z TO:1101 Polk County - Westcom Law Enforcement 1 FROM:8633"
    INDEX 01 17:59:21
  TRACK 5 AUDIO
    TITLE "2020-07-29T21:34:14.678Z TO:1101 Polk County - Westcom Law Enforcement 1 FROM:1004"
    INDEX 01 18:03:34
  TRACK 6 AUDIO
    TITLE "2020-07-29T21:34:16.766Z TO:24605 Dallas County Law 1 FROM:2500048"
    INDEX 01 18:05:41
  TRACK 7 AUDIO
    TITLE "2020-07-29T21:34:20.294Z TO:24605 Dallas County Law 1 FROM:2559981"
    INDEX 01 18:09:05
  TRACK 8 AUDIO
    TITLE "2020-07-29T21:34:22.382Z TO:48696 Polk County - UnityPoint Health Security FROM:10779039"
    INDEX 01 18:11:12
  TRACK 9 AUDIO
    TITLE "2020-07-29T21:34:25.190Z TO:48696 Polk County - UnityPoint Health Security FROM:120"
    INDEX 01 18:13:73
  TRACK 10 AUDIO
    TITLE "END"
    INDEX 01 18:16:04